<?xml version="1.0" encoding="utf-8"?>
<!-- Generator: Adobe Illustrator 24.1.3, SVG Export Plug-In . SVG Version: 6.00 Build 0)  -->
<svg version="1.1" xmlns="http://www.w3.org/2000/svg" xmlns:xlink="http://www.w3.org/1999/xlink" x="0px" y="0px"
	 viewBox="0 0 100 100" style="enable-background:new 0 0 100 100;" xml:space="preserve">
<style type="text/css">
	.st0{fill:none;stroke:#11B297;stroke-width:4;stroke-miterlimit:10;}
	.st1{fill:none;stroke:#11B297;stroke-width:2;stroke-miterlimit:10;}
	.st2{display:none;fill:#99D1C6;}
	.st3{fill:#11B297;}
	.st4{fill:#FFFFFF;}
	.st5{display:none;fill:#11B297;}
</style>
<g id="レイヤー_2">
	<g>
		<circle class="st0" cx="39.9" cy="35.8" r="24"/>
		<circle class="st0" cx="39.9" cy="35.8" r="10"/>
		<circle class="st1" cx="39.9" cy="35.8" r="4"/>
		<circle class="st1" cx="51.6" cy="24.4" r="1.5"/>
	</g>
</g>
<g id="レイヤー_4">
	<g>
		<path class="st2" d="M27.2,53.7c-0.3-0.8-0.1-1.6,0.2-2.2c0.4-0.7,1-1.1,1.7-1.4c0.5-0.1,1,0,1.5,0.2l7.5,22.4l-5.6-2.3L27.2,53.7
			z"/>
		<path class="st3" d="M65.9,28.8c-0.8,0.5-1.6,1.1-2.2,1.9c-1.8-2.9-5.6-4.1-8.8-2.6c-1,0.5-2,1.3-2.6,2.2
			c-0.7-0.7-1.6-1.2-2.5-1.5c-1.8-0.6-3.6-0.6-5.3,0.2c-3.2,1.5-4.7,5-3.7,8.2c-0.9,0-1.7,0.1-2.6,0.4c-1.8,0.7-3.2,2.1-3.8,3.9
			c-0.7,1.7-0.7,3.6,0.1,5.2l1.9,4.2l10.3,21.2l-5.9-1.6l-5.2-1.3c-4.3-0.4-8.4,2.4-9.4,6.7c-0.3,1.2-0.1,2.4,0.4,3.4
			c0,0,0.8,2.4,4.5,3.6c0.6,0.2,1.7,0.4,2.3,0.6c2.5,0.7,9.9,3.4,9.9,3.4c3.6,1.3,7,3,9.9,4.9c0.1,0,0.1,0.1,0.2,0.2
			c5.9,4.2,13.6,4.9,20.1,1.8c0.6-0.3,1.4-0.6,1.9-1c2.3-1.5,5.4-3.6,8.1-7.2c2.6-3.4,3.3-5,4.3-7.7c2.4-6.8,2.3-14.4-1-21.4
			L75.1,32.1c-0.8-1.7-2.2-2.9-3.9-3.5C69.4,27.9,67.5,28,65.9,28.8z"/>
		<path class="st4" d="M71.5,33.9l11.7,24.7c5.6,11.9,0.5,26.2-11.4,31.8C66.7,92.7,60.6,92.3,56,89l-0.1,0
			c-3.5-2.4-7.2-4.3-11.1-5.7l-9.9-3.5l-0.3-0.1l-3.5-1.2c-0.6-0.2-1-0.9-0.8-1.4c0.6-2.5,3.2-4.1,5.6-3.5l9.7,2.7
			c1.5,0.3,3-0.2,4-1.3c1-1.2,1.1-2.8,0.5-4.2L38.3,45.4c-0.4-0.8-0.5-1.3,0-2.2c0.3-0.8,0.9-1.3,1.5-1.6c1.2-0.5,3.1,0.3,3.8,1.7
			l9,18.8c0.5,1,1.7,1.5,2.7,1c0.5-0.2,0.9-0.6,1.1-1.2c0.2-0.5,0.2-1.1-0.1-1.6l-8.9-18.9l-2.4-5c-0.7-1.4-0.1-3.1,1.3-3.8
			c0.6-0.3,1.4-0.3,2.1-0.1c0.8,0.3,1.3,0.8,1.6,1.4l11.2,24c0.5,1,1.7,1.5,2.7,1c0.5-0.2,0.9-0.6,1.1-1.2c0.2-0.6,0.2-1.1-0.1-1.6
			l-6.3-13.4l-3.4-7.2c-0.7-1.4-0.1-3.1,1.3-3.8c1.4-0.7,3.1-0.1,3.8,1.3l2.3,4.9l1.6,3.5l5.8,12.3c0.5,1,1.7,1.5,2.7,1
			c0.5-0.2,0.9-0.6,1.1-1.2c0.2-0.6,0.2-1.1-0.1-1.6l-7.4-15.7c-0.7-1.4-0.1-3.1,1.3-3.8c0.6-0.3,1.4-0.3,2.1-0.1
			C70.7,32.6,71.2,33.1,71.5,33.9z"/>
	</g>
</g>
<g id="レイヤー_1">
	<path class="st5" d="M84.4,54.6c2.2-2.8,2.1-7-0.5-9.6c-0.8-0.8-2-1.5-3.1-1.8c0.4-0.9,0.6-2,0.6-3c0-2-0.7-3.8-2.1-5.1
		c-2.6-2.6-6.6-2.8-9.4-0.7c-0.3-0.8-0.7-1.7-1.4-2.4c-1.4-1.5-3.2-2.4-5.2-2.4c-1.9-0.1-3.7,0.6-5.1,2c-0.2-0.3-0.4-0.7-0.7-0.9
		c-1.4-1.5-3.2-2.4-5.2-2.4c-2.1-0.1-4,0.7-5.3,2.1L36.6,40.6c-1.1-4.4-5.3-7.4-9.9-6.9c-1.2,0.1-2.4,0.7-3.2,1.6
		c-1.9-2.1-4.8-3.3-7.8-3c-2.8,0.3-5,2.7-5,5.6L10.7,53c0,4-0.5,8-1.5,11.6v0.1l0,0c-2.1,7.3,0,15.1,5.3,20.4
		c5.5,5.5,12.9,8.5,20.6,8.5c0.6,0,1.4,0,2-0.1c2.9,0.9,6,1.5,9.1,1.5c7.5,0,15-2.8,20.6-8.5L87,66.2c1.4-1.4,2.1-3.2,2.1-5.1
		c0-2-0.7-3.7-2.1-5.1C86.2,55.4,85.3,54.9,84.4,54.6z"/>
	<path class="st5" d="M50,33.3c0.6-0.6,1.5-0.8,2.2-0.8c0.8,0,1.6,0.4,2.1,0.9c0.3,0.4,0.5,0.9,0.5,1.5L37.6,52.5l-0.5-6.4L50,33.3z
		"/>
	<path class="st5" d="M17.6,82.2c-4.3-4.3-5.8-10.4-4.3-16.1l0,0c1.1-4.2,1.7-8.5,1.7-12.9L14.9,38c0-0.6,0.5-1.2,1.1-1.2
		c2.7-0.3,5.1,1.7,5.4,4.3l0.2,2.5l0.1,10.9c0,4-0.5,7.9-1.4,11.5c0,0.1-0.1,0.1-0.1,0.2c-2.1,7.3,0,15.1,5.3,20.4
		c0.5,0.5,1.1,1,1.7,1.6C23.6,86.9,20.3,84.9,17.6,82.2z"/>
	<path class="st5" d="M70.5,19l5.3-11.4c0.5-1,1.8-1.6,2.8-1c1,0.5,1.6,1.8,1,2.8l-5.2,11.5c-0.4,0.8-1.1,1.2-2,1.2
		c-0.3,0-0.6-0.1-0.9-0.2C70.5,21.4,70.1,20,70.5,19z"/>
	<path class="st5" d="M59.4,7.4c-0.3-1.1,0.4-2.3,1.6-2.6c1.1-0.3,2.3,0.3,2.6,1.5l3.2,12.1c0.3,1.1-0.4,2.3-1.6,2.6
		c-0.2,0-0.4,0.1-0.5,0.1c-0.9,0-1.8-0.6-2.1-1.6L59.4,7.4z"/>
	<path class="st5" d="M90.5,22l-11.4,5.3c-0.3,0.1-0.6,0.2-0.9,0.2c-0.8,0-1.6-0.4-2-1.3c-0.5-1,0-2.4,1-2.8l11.4-5.3
		c1-0.5,2.4,0,2.8,1C92.1,20.2,91.6,21.5,90.5,22z"/>
</g>
</svg>
