<?xml version="1.0" encoding="utf-8"?>
<!-- Generator: Adobe Illustrator 24.1.3, SVG Export Plug-In . SVG Version: 6.00 Build 0)  -->
<svg version="1.1" id="レイヤー_1" xmlns="http://www.w3.org/2000/svg" xmlns:xlink="http://www.w3.org/1999/xlink" x="0px"
	 y="0px" viewBox="0 0 100 100" style="enable-background:new 0 0 100 100;" xml:space="preserve">
<style type="text/css">
	.st0{fill:#11B297;}
</style>
<path class="st0" d="M13.2,56c-1.4,1.4-2.1,3.1-2.1,5.1c0,1.9,0.7,3.8,2.1,5.1l20.1,20.2C39,92.2,46.5,95,54,95c3,0,6.1-0.5,9.1-1.5
	c0.6,0.1,1.4,0.1,2,0.1c7.7,0,15.1-3,20.6-8.5c5.3-5.3,7.4-13.1,5.3-20.4l0,0v-0.1C90,61,89.5,57,89.5,53l0.1-15.1
	c0-2.9-2.2-5.3-5-5.6c-3-0.3-5.9,0.9-7.8,3c-0.8-0.8-2-1.5-3.2-1.6c-4.6-0.5-8.8,2.5-9.9,6.9L53.2,30.3c-1.4-1.4-3.2-2.2-5.3-2.1
	c-2,0-3.9,0.9-5.2,2.4c-0.3,0.2-0.5,0.6-0.7,0.9c-1.4-1.4-3.2-2.1-5.1-2c-2,0-3.9,0.9-5.2,2.4c-0.6,0.7-1,1.6-1.4,2.4
	c-2.8-2.1-6.8-1.9-9.4,0.7c-1.4,1.4-2.1,3.1-2.1,5.1c0,1,0.2,2.1,0.6,3c-1.1,0.3-2.3,0.9-3.1,1.8c-2.6,2.6-2.7,6.8-0.5,9.6
	C14.9,54.9,14,55.4,13.2,56z M63.1,46.1l-0.5,6.4L45.4,34.9c0-0.5,0.2-1,0.5-1.5c0.5-0.5,1.2-0.9,2.1-0.9c0.7,0,1.6,0.2,2.2,0.8
	L63.1,46.1z M72.9,88.1c0.5-0.5,1.1-1,1.7-1.6c5.3-5.3,7.4-13.1,5.3-20.4c0-0.1-0.1-0.1-0.1-0.2c-0.8-3.5-1.4-7.5-1.4-11.5l0.1-10.9
	l0.2-2.5c0.3-2.6,2.7-4.6,5.4-4.3c0.6,0,1.1,0.6,1.1,1.2l-0.1,15.1c0,4.4,0.5,8.8,1.7,12.9l0,0c1.6,5.7,0,11.9-4.3,16.1
	C79.9,84.9,76.6,86.9,72.9,88.1z M15.3,61.2c0-0.8,0.3-1.6,0.8-2.1c1.1-1.1,3-1.1,4.2,0L33.1,72c0.4,0.4,0.9,0.6,1.6,0.6
	c0.6,0,1.1-0.2,1.6-0.6c0.8-0.8,0.8-2.2,0-3l-10-10l-2.9-2.8l0,0l-4-4c-1.1-1.1-1.1-3,0-4.2c1.1-1.1,3-1.1,4.2,0l5.8,5.8l10.9,10.9
	c0.4,0.4,0.9,0.6,1.6,0.6c0.6,0,1.1-0.2,1.6-0.6c0.8-0.8,0.8-2.2,0-3L23.8,42.3C23.3,41.8,23,41,23,40.2s0.3-1.6,0.8-2.1
	c1.1-1.1,3-1.1,4.2,0l4.1,4.1l0,0l15.4,15.4c0.4,0.4,1,0.6,1.6,0.6c0.6,0,1.1-0.2,1.6-0.6c0.8-0.8,0.8-2.2,0-3L35.3,39.2l0,0l0,0
	c-1.1-1.1-1.2-3.2-0.3-4.3c0.5-0.5,1.2-0.9,2.1-0.9c1-0.1,1.6,0.2,2.2,0.8l20.6,20.6c1.1,1,2.7,1.5,4.3,0.9c1.5-0.5,2.5-1.9,2.7-3.4
	l0.7-10.5c0.3-2.6,2.7-4.6,5.4-4.3c0.6,0,1.1,0.6,1.1,1.3v3.9v0.3l0,0v10.9l0,0l0,0c0,4.4,0.5,8.6,1.7,12.9v0.1
	c1.6,5.7-0.1,11.9-4.3,16c-9.7,9.7-25.5,9.7-35.2,0L16.2,63.3C15.6,62.8,15.3,62.1,15.3,61.2z M28.6,21.9c-0.3,0.1-0.6,0.2-0.9,0.2
	c-0.8,0-1.6-0.4-2-1.2L20.5,9.4c-0.5-1,0-2.3,1-2.8c1-0.5,2.3,0,2.8,1L29.7,19C30.1,20,29.7,21.4,28.6,21.9z M37.6,19.5
	c-0.3,0.9-1.1,1.6-2.1,1.6c-0.1,0-0.3-0.1-0.5-0.1c-1.1-0.3-1.9-1.5-1.6-2.6l3.2-12.1c0.3-1.1,1.5-1.8,2.6-1.5
	c1.1,0.3,1.9,1.5,1.6,2.6L37.6,19.5z M8.7,19.2c0.4-1,1.8-1.6,2.8-1l11.4,5.3c1,0.4,1.6,1.8,1,2.8c-0.4,0.8-1.1,1.3-2,1.3
	c-0.3,0-0.6-0.1-0.9-0.2L9.7,22C8.6,21.5,8.1,20.2,8.7,19.2z"/>
</svg>
